<svg width="139" height="139" viewBox="0 0 139 139" fill="none" xmlns="http://www.w3.org/2000/svg">
<path id="Vector" d="M138.844 69.3329C138.862 107.529 107.693 138.684 69.4563 138.698C30.9906 138.707 -0.00916409 107.726 2.03217e-06 69.2733C0.00916815 31.0222 31.1098 -0.0228785 69.4059 1.26511e-05C107.656 0.0229038 138.825 31.1458 138.844 69.3329ZM89.3651 78.1551C90.3092 72.1302 91.212 66.3753 92.1745 60.2405H75.3776C75.3776 55.5615 75.3088 51.2168 75.4051 46.872C75.4601 44.2304 76.7571 42.042 79.1403 40.9936C81.1064 40.1283 83.3338 39.6933 85.4924 39.4553C87.8068 39.1989 90.1763 39.3958 92.807 39.3958C92.807 34.9411 92.7382 30.7704 92.8436 26.5996C92.8849 24.9423 92.2432 24.5577 90.7171 24.5302C86.7482 24.4524 82.7792 24.2784 78.8195 24.022C68.0264 23.3216 60.116 28.8109 57.4028 39.2767C56.6466 42.1885 56.4954 45.2925 56.3625 48.3187C56.1929 52.2514 56.3212 56.1979 56.3212 60.4145H40.528V78.233H56.445V121.575H75.4097V78.1505H89.3697L89.3651 78.1551Z" fill="#AF2A1A"/>
</svg>
