<svg width="140" height="139" viewBox="0 0 140 139" fill="none" xmlns="http://www.w3.org/2000/svg">
<g id="Group">
<path id="Vector" d="M139.513 69.2505C139.523 107.708 108.541 138.693 70.0709 138.698C31.8253 138.702 0.706325 107.607 0.687993 69.3604C0.674244 31.1642 31.7749 0.0733654 70.0801 0.000113613C108.344 -0.06856 139.504 31.0039 139.513 69.246V69.2505ZM70.0984 25.1255C63.3797 25.1255 56.6609 25.1072 49.9421 25.1255C36.3855 25.1667 25.794 35.7104 25.7757 49.1979C25.7573 62.5434 25.7665 75.8936 25.7757 89.2391C25.7802 102.869 36.0005 113.421 49.6717 113.586C63.3384 113.751 77.0051 113.76 90.6718 113.586C104.105 113.417 114.385 103.065 114.527 89.6283C114.673 76.0538 114.692 62.4748 114.527 48.9003C114.362 35.4311 103.734 25.1575 90.2593 25.1209C83.5405 25.1026 76.8218 25.1209 70.103 25.1209L70.0984 25.1255Z" fill="#AF2A1A"/>
<path id="Vector_2" d="M106.703 69.3335C106.703 75.8941 106.731 82.4547 106.699 89.0199C106.644 98.7395 99.6592 105.772 89.9248 105.808C76.7898 105.859 63.6501 105.859 50.5151 105.808C40.6203 105.772 33.599 98.8219 33.544 88.9558C33.4707 75.9079 33.4707 62.8599 33.544 49.8165C33.599 39.9137 40.5836 32.9411 50.4601 32.8999C63.5951 32.8404 76.7348 32.8358 89.8698 32.8999C99.7463 32.9502 106.667 39.9824 106.699 49.876C106.722 56.3634 106.699 62.8461 106.703 69.3335ZM70.2268 93.5112C83.5085 93.5112 94.5491 82.528 94.5079 69.361C94.4666 56.2169 83.3756 45.197 70.181 45.1925C56.8993 45.1879 46.042 56.0749 46.0374 69.4068C46.0329 82.7706 56.8076 93.5112 70.2268 93.5112ZM93.8067 50.8145C96.6665 50.8695 99.123 48.4979 99.1184 45.6869C99.1138 42.9812 96.7582 40.6188 94.0221 40.573C91.0843 40.5272 88.747 42.798 88.7561 45.6961C88.7653 48.5117 90.9835 50.7596 93.8067 50.8145Z" fill="#AF2A1A"/>
<path id="Vector_3" d="M85.9926 69.3826C85.9926 78.15 78.8705 85.3103 70.1489 85.3149C61.4274 85.3195 54.2732 78.1545 54.2732 69.4055C54.2732 60.7114 61.5328 53.5236 70.2406 53.5923C78.8888 53.6564 85.9971 60.7801 85.9971 69.3826H85.9926Z" fill="#AF2A1A"/>
</g>
</svg>
