<svg width="140" height="139" viewBox="0 0 140 139" fill="none" xmlns="http://www.w3.org/2000/svg">
<path id="Vector" d="M0.36376 69.2609C0.643327 30.6297 31.8081 -0.227647 70.3104 0.00126541C108.785 0.230177 139.501 31.5362 139.203 70.2177C138.91 108.116 107.442 139.019 69.4671 138.699C31.1757 138.374 0.0887721 107.137 0.359173 69.2609H0.36376ZM71.6762 55.5078H56.1854V107.984C60.2873 107.984 64.2379 107.997 68.1885 107.984C72.1299 107.965 71.6395 108.368 71.6533 104.609C71.6808 96.2954 71.5845 87.9813 71.6991 79.6672C71.7816 73.6743 76.6534 69.0915 82.6801 69.0457C88.3218 69.0045 92.4924 73.1798 92.8499 79.2506C92.9003 80.0884 92.8866 80.9262 92.8866 81.7686C92.8866 89.776 92.8774 97.7879 92.9003 105.795C92.9003 106.683 92.4649 107.97 94.1011 107.974C98.8125 107.993 103.524 107.979 108.295 107.979C108.391 107.274 108.496 106.834 108.496 106.395C108.496 95.0318 108.584 83.664 108.414 72.3008C108.377 69.9339 107.727 67.4479 106.819 65.2366C101.287 51.7125 80.6406 52.271 73.7339 59.9854C73.2023 60.5805 72.634 61.1391 71.667 62.1509V55.5124L71.6762 55.5078ZM46.7581 107.855V55.549H31.4048V107.855H46.7581ZM48.4629 38.2158C48.4355 32.8547 44.187 28.7068 38.7927 28.7663C33.6597 28.8259 29.6174 32.9692 29.6082 38.1884C29.5945 43.5449 33.6551 47.7477 38.8844 47.7843C44.2007 47.8255 48.495 43.5357 48.4675 38.2113L48.4629 38.2158Z" fill="#AF2A1A"/>
</svg>
