<svg width="140" height="139" viewBox="0 0 140 139" fill="none" xmlns="http://www.w3.org/2000/svg">
<path id="Vector" d="M139.357 69.388C139.426 107.525 108.238 138.661 69.9331 138.698C31.6233 138.735 0.545527 107.731 0.513446 69.4476C0.485948 31.146 31.4308 0.105566 69.7589 0.000266491C108.082 -0.105033 139.288 31.0087 139.357 69.3835V69.388ZM28.5114 98.0982C29.483 98.7117 29.9367 99.055 30.4363 99.3068C38.0487 103.166 46.092 105.236 54.6531 105.391C83.8885 105.918 106.717 83.196 105.979 54.2203C105.947 52.943 106.217 52.1601 107.418 51.478C110.356 49.8069 112.432 47.3026 114.178 44.0017C112.381 44.5603 111.089 45.0135 109.769 45.3615C108.532 45.6865 107.267 45.8971 106.011 46.1535C108.669 43.3241 111.066 40.623 112.313 36.7864C109.347 38.0912 106.753 39.1808 104.205 40.3712C102.587 41.1266 101.428 40.9022 99.9429 39.7165C93.8108 34.8178 86.9683 34.0761 79.9929 37.5739C73.2191 40.9755 70.0201 46.7487 70.2722 54.3668C70.2997 55.1726 70.2722 55.9738 70.2722 56.9673C55.0198 56.7933 43.7959 49.1522 33.869 38.5719C29.1484 48.0992 31.5866 55.7037 39.4007 62.1178C39.2311 62.3192 39.0616 62.5161 38.892 62.7176C36.4538 62.0629 34.0202 61.4036 31.44 60.7123C32.1962 68.9485 36.3117 74.6759 44.3504 77.5098C44.3046 77.7204 44.2634 77.931 44.2175 78.1371C41.9672 78.2424 39.717 78.3477 37.2788 78.4621C38.6812 81.7447 40.4227 84.7847 43.3467 86.6617C46.1928 88.4885 49.4422 89.6925 52.5953 91.2034C45.9774 96.9902 37.5629 97.6632 28.5114 98.0982Z" fill="#AF2A1A"/>
</svg>
