<svg width="140" height="139" viewBox="0 0 140 139" fill="none" xmlns="http://www.w3.org/2000/svg">
<g id="Group">
<path id="Vector" d="M139.688 69.4067C139.573 107.754 108.271 138.863 69.9749 138.689C31.5322 138.515 0.738609 107.438 0.84402 68.9168C0.94943 30.7343 32.2059 -0.159618 70.5753 0.000620526C108.72 0.156281 139.798 31.3707 139.688 69.4067ZM70.4011 38.5585C60.8271 39.1171 51.1431 39.5154 41.4866 40.2891C32.6138 40.9987 29.1215 44.5606 28.2507 53.3554C27.1874 64.0822 27.1783 74.8273 28.3057 85.5542C29.1627 93.7172 32.3938 97.0272 40.5516 98.0619C53.6913 99.733 66.8997 99.7284 80.1035 99.3621C86.9597 99.1698 93.8251 98.6937 100.645 97.9429C107.863 97.1417 111.126 94.12 111.928 86.9276C112.744 79.6025 112.991 72.1857 113.033 64.8056C113.06 60.0259 112.469 55.2188 111.795 50.4711C111.025 45.0367 107.703 41.7771 102.258 40.7653C101.135 40.5547 100.008 40.2983 98.8711 40.2296C89.43 39.6527 79.9843 39.1171 70.4057 38.5585H70.4011Z" fill="#AF2A1A"/>
<path id="Vector_2" d="M61.8721 56.5469C69.3058 60.8138 76.4095 64.8838 83.9624 69.2194C76.4737 73.5733 69.3241 77.7258 61.8721 82.0614V56.5469Z" fill="#AF2A1A"/>
</g>
</svg>
